<mxfile host="Electron" modified="2023-12-18T09:51:43.391Z" agent="Mozilla/5.0 (Windows NT 10.0; Win64; x64) AppleWebKit/537.36 (KHTML, like Gecko) draw.io/21.2.1 Chrome/112.0.5615.87 Electron/24.1.2 Safari/537.36" etag="W33M-wxyyon4RKtuyM94" version="21.2.1" type="device">
  <diagram name="第 1 页" id="kj09mCRMPJA3Pr3Ol3pb">
    <mxGraphModel dx="2060" dy="1182" grid="1" gridSize="10" guides="1" tooltips="1" connect="1" arrows="1" fold="1" page="1" pageScale="1" pageWidth="827" pageHeight="1169" math="0" shadow="0">
      <root>
        <mxCell id="0" />
        <mxCell id="1" parent="0" />
        <mxCell id="OMr3G2vgLBYyFHTPHP7O-10" style="edgeStyle=orthogonalEdgeStyle;rounded=0;orthogonalLoop=1;jettySize=auto;html=1;exitX=1;exitY=0.25;exitDx=0;exitDy=0;entryX=0;entryY=0.25;entryDx=0;entryDy=0;" parent="1" source="uEpX9t3pM9QsPOURx1SE-47" target="uEpX9t3pM9QsPOURx1SE-55" edge="1">
          <mxGeometry relative="1" as="geometry" />
        </mxCell>
        <mxCell id="OMr3G2vgLBYyFHTPHP7O-11" value="fork" style="edgeLabel;html=1;align=center;verticalAlign=middle;resizable=0;points=[];" parent="OMr3G2vgLBYyFHTPHP7O-10" vertex="1" connectable="0">
          <mxGeometry x="0.1738" y="1" relative="1" as="geometry">
            <mxPoint x="-10" y="-9" as="offset" />
          </mxGeometry>
        </mxCell>
        <mxCell id="uEpX9t3pM9QsPOURx1SE-47" value="fe/project" style="swimlane;whiteSpace=wrap;html=1;startSize=30;" parent="1" vertex="1">
          <mxGeometry x="120" y="40" width="160" height="320" as="geometry">
            <mxRectangle x="120" y="40" width="90" height="30" as="alternateBounds" />
          </mxGeometry>
        </mxCell>
        <mxCell id="uEpX9t3pM9QsPOURx1SE-48" value="master" style="rounded=1;whiteSpace=wrap;html=1;" parent="uEpX9t3pM9QsPOURx1SE-47" vertex="1">
          <mxGeometry x="40" y="160" width="100" height="20" as="geometry" />
        </mxCell>
        <mxCell id="uEpX9t3pM9QsPOURx1SE-71" style="edgeStyle=orthogonalEdgeStyle;rounded=0;orthogonalLoop=1;jettySize=auto;html=1;entryX=0.5;entryY=0;entryDx=0;entryDy=0;dashed=1;dashPattern=1 4;endArrow=openThin;endFill=0;" parent="uEpX9t3pM9QsPOURx1SE-47" source="uEpX9t3pM9QsPOURx1SE-51" target="uEpX9t3pM9QsPOURx1SE-54" edge="1">
          <mxGeometry relative="1" as="geometry">
            <Array as="points">
              <mxPoint x="90" y="260" />
              <mxPoint x="90" y="260" />
            </Array>
          </mxGeometry>
        </mxCell>
        <mxCell id="uEpX9t3pM9QsPOURx1SE-51" value="release-feat-xxx" style="rounded=1;whiteSpace=wrap;html=1;" parent="uEpX9t3pM9QsPOURx1SE-47" vertex="1">
          <mxGeometry x="40" y="220" width="100" height="20" as="geometry" />
        </mxCell>
        <mxCell id="uEpX9t3pM9QsPOURx1SE-81" style="edgeStyle=orthogonalEdgeStyle;rounded=0;orthogonalLoop=1;jettySize=auto;html=1;entryX=0;entryY=0.5;entryDx=0;entryDy=0;" parent="uEpX9t3pM9QsPOURx1SE-47" source="uEpX9t3pM9QsPOURx1SE-54" target="uEpX9t3pM9QsPOURx1SE-48" edge="1">
          <mxGeometry relative="1" as="geometry">
            <Array as="points">
              <mxPoint x="20" y="290" />
              <mxPoint x="20" y="170" />
            </Array>
          </mxGeometry>
        </mxCell>
        <mxCell id="uEpX9t3pM9QsPOURx1SE-54" value="tag/v1.0.0" style="rounded=1;whiteSpace=wrap;html=1;dashed=1;" parent="uEpX9t3pM9QsPOURx1SE-47" vertex="1">
          <mxGeometry x="40" y="280" width="100" height="20" as="geometry" />
        </mxCell>
        <mxCell id="uEpX9t3pM9QsPOURx1SE-88" style="edgeStyle=orthogonalEdgeStyle;rounded=0;orthogonalLoop=1;jettySize=auto;html=1;entryX=0.5;entryY=1;entryDx=0;entryDy=0;dashed=1;dashPattern=1 4;endArrow=openThin;endFill=0;" parent="uEpX9t3pM9QsPOURx1SE-47" source="uEpX9t3pM9QsPOURx1SE-82" target="uEpX9t3pM9QsPOURx1SE-86" edge="1">
          <mxGeometry relative="1" as="geometry" />
        </mxCell>
        <mxCell id="uEpX9t3pM9QsPOURx1SE-82" value="release-fix-xxx" style="rounded=1;whiteSpace=wrap;html=1;" parent="uEpX9t3pM9QsPOURx1SE-47" vertex="1">
          <mxGeometry x="40" y="100" width="100" height="20" as="geometry" />
        </mxCell>
        <mxCell id="uEpX9t3pM9QsPOURx1SE-89" style="edgeStyle=orthogonalEdgeStyle;rounded=0;orthogonalLoop=1;jettySize=auto;html=1;entryX=0;entryY=0.5;entryDx=0;entryDy=0;" parent="uEpX9t3pM9QsPOURx1SE-47" source="uEpX9t3pM9QsPOURx1SE-86" target="uEpX9t3pM9QsPOURx1SE-48" edge="1">
          <mxGeometry relative="1" as="geometry">
            <Array as="points">
              <mxPoint x="20" y="50" />
              <mxPoint x="20" y="170" />
            </Array>
          </mxGeometry>
        </mxCell>
        <mxCell id="uEpX9t3pM9QsPOURx1SE-86" value="tag/v1.0.1" style="rounded=1;whiteSpace=wrap;html=1;dashed=1;" parent="uEpX9t3pM9QsPOURx1SE-47" vertex="1">
          <mxGeometry x="40" y="40" width="100" height="20" as="geometry" />
        </mxCell>
        <mxCell id="uEpX9t3pM9QsPOURx1SE-55" value="username/project" style="swimlane;whiteSpace=wrap;html=1;startSize=30;" parent="1" vertex="1">
          <mxGeometry x="400" y="40" width="160" height="320" as="geometry">
            <mxRectangle x="400" y="40" width="140" height="30" as="alternateBounds" />
          </mxGeometry>
        </mxCell>
        <mxCell id="uEpX9t3pM9QsPOURx1SE-56" value="feat-xxx" style="rounded=1;whiteSpace=wrap;html=1;" parent="uEpX9t3pM9QsPOURx1SE-55" vertex="1">
          <mxGeometry x="40" y="180" width="80" height="20" as="geometry" />
        </mxCell>
        <mxCell id="uEpX9t3pM9QsPOURx1SE-83" value="fix-xxx" style="rounded=1;whiteSpace=wrap;html=1;" parent="uEpX9t3pM9QsPOURx1SE-55" vertex="1">
          <mxGeometry x="40" y="140" width="80" height="20" as="geometry" />
        </mxCell>
        <mxCell id="uEpX9t3pM9QsPOURx1SE-100" value="fix-xxx" style="rounded=1;whiteSpace=wrap;html=1;" parent="uEpX9t3pM9QsPOURx1SE-55" vertex="1">
          <mxGeometry x="40" y="220" width="80" height="20" as="geometry" />
        </mxCell>
        <mxCell id="uEpX9t3pM9QsPOURx1SE-75" style="edgeStyle=orthogonalEdgeStyle;rounded=0;orthogonalLoop=1;jettySize=auto;html=1;entryX=0;entryY=0.5;entryDx=0;entryDy=0;" parent="1" source="uEpX9t3pM9QsPOURx1SE-48" target="uEpX9t3pM9QsPOURx1SE-56" edge="1">
          <mxGeometry relative="1" as="geometry">
            <Array as="points">
              <mxPoint x="340" y="210" />
              <mxPoint x="340" y="230" />
            </Array>
          </mxGeometry>
        </mxCell>
        <mxCell id="uEpX9t3pM9QsPOURx1SE-84" style="edgeStyle=orthogonalEdgeStyle;rounded=0;orthogonalLoop=1;jettySize=auto;html=1;entryX=0;entryY=0.5;entryDx=0;entryDy=0;" parent="1" source="uEpX9t3pM9QsPOURx1SE-48" target="uEpX9t3pM9QsPOURx1SE-83" edge="1">
          <mxGeometry relative="1" as="geometry">
            <Array as="points">
              <mxPoint x="340" y="210" />
              <mxPoint x="340" y="190" />
            </Array>
          </mxGeometry>
        </mxCell>
        <mxCell id="uEpX9t3pM9QsPOURx1SE-95" value="&lt;div&gt;环境&lt;/div&gt;&lt;div&gt;&lt;ol&gt;&lt;li&gt;git version &amp;gt;= 2.0&lt;/li&gt;&lt;li&gt;git config --global core.ignorecase false&lt;/li&gt;&lt;li&gt;git config --global core.autocrlf input&lt;br&gt;&lt;/li&gt;&lt;/ol&gt;&lt;/div&gt;&lt;br&gt;&lt;div&gt;&lt;br&gt;&lt;/div&gt;&lt;div&gt;&lt;span style=&quot;&quot;&gt; &lt;/span&gt;&lt;span style=&quot;&quot;&gt; &lt;/span&gt;准备工作&lt;/div&gt;&lt;ol&gt;&lt;li&gt;fork fe/project to username/project (仅第一次需要)&lt;br&gt;&lt;/li&gt;&lt;li&gt;git clone git@git.robosen.cn:username/project.git (仅第一次需要)&lt;/li&gt;&lt;li style=&quot;border-color: var(--border-color);&quot;&gt;git remote add upstream git@git.robosen.cn:fe/project.git (仅第一次需要)&lt;/li&gt;&lt;/ol&gt;&lt;div&gt;&lt;br&gt;&lt;/div&gt;&lt;div&gt;&lt;br&gt;&lt;/div&gt;&lt;div&gt;&lt;span style=&quot;&quot;&gt; &lt;/span&gt;&lt;span style=&quot;&quot;&gt; &lt;/span&gt;开发功能xxx&lt;br&gt;&lt;/div&gt;&lt;ol&gt;&lt;li&gt;git fetch upstream &amp;amp;&amp;amp;&amp;nbsp;git checkout -b feat-xxx upstream/master&amp;nbsp;(在新分支开发新功能)&lt;/li&gt;&lt;li&gt;git add . &amp;amp;&amp;amp; git commit -m &quot;feat: add xxx&quot; (完成自测后提交至本地仓库)&lt;/li&gt;&lt;li style=&quot;border-color: var(--border-color);&quot;&gt;git fetch&amp;nbsp;upstream &amp;amp;&amp;amp; git checkout -b release-feat-xxx upstream/master &amp;amp;&amp;amp; git push upstream release-feat-xxx&amp;nbsp;&amp;amp;&amp;amp; git checkout&amp;nbsp;feat-xxx (仅第一次需要，越晚创建越好，且对 fe/project 的操作要限制开发人员)&lt;/li&gt;&lt;li&gt;git pull upstream release-feat-xxx&amp;nbsp;--rebase (检查上游版本是否更改)&lt;/li&gt;&lt;li&gt;git add . &amp;amp;&amp;amp; git rebase --continue (解决冲突)&lt;/li&gt;&lt;li&gt;git push origin feat-xxx (检查 git log 无误，推送至 username/project)&lt;/li&gt;&lt;li&gt;向 fe/project 发起 merge request feat-xxx to release-feat-xxx (请同事 code review，若同事对 MR 提出修改意见，则进入下一步，否则跳过)&lt;/li&gt;&lt;li&gt;git add . &amp;amp;&amp;amp; git commit --amend --no-edit &amp;amp;&amp;amp; git pull upsteam release-feat-xxx&amp;nbsp;--rebase &amp;amp;&amp;amp; git push origin feat-xxx -f (按照修改意见修改，并推送至 username/project，若有冲突请执行第5步解决冲突)&lt;/li&gt;&lt;li&gt;git checkout master &amp;amp;&amp;amp; git branch -D feat-xxx &amp;amp;&amp;amp; git push -d origin feat-xxx (MR 通过后点击 merge，代码合并到 upstream/release-feat-xxx，此时删除 origin/feat-xxx，删除步骤十分必要，因为后续 upstream/release-feat-xxx&amp;nbsp;rebase upstream/master 可能会建立新的 network，导致分支 feat-xxx 不能正确合并到 upstream/release-feat-xxx)&lt;/li&gt;&lt;/ol&gt;&lt;div&gt;&lt;br&gt;&lt;/div&gt;&lt;div&gt;&lt;br&gt;&lt;/div&gt;&lt;div&gt;修改功能xxx&lt;/div&gt;&lt;ol&gt;&lt;li&gt;git fetch upstream &amp;amp;&amp;amp;&amp;nbsp;git checkout -b fix-xxx upstream/release-fix-xxx&amp;nbsp;(在新分支修改)&lt;br&gt;&lt;/li&gt;&lt;li&gt;之后同开发功能xxx&lt;/li&gt;&lt;/ol&gt;&lt;div&gt;&lt;br&gt;&lt;/div&gt;&lt;div&gt;&lt;br&gt;&lt;/div&gt;&lt;div&gt;修改线上&lt;/div&gt;&lt;ol&gt;&lt;li style=&quot;border-color: var(--border-color);&quot;&gt;git fetch upstream &amp;amp;&amp;amp;&amp;nbsp;git checkout -b fix-xxx upstream/master&amp;nbsp;(在新分支修改)&lt;/li&gt;&lt;li style=&quot;border-color: var(--border-color);&quot;&gt;之后同开发功能xxx&lt;/li&gt;&lt;/ol&gt;&lt;div&gt;&lt;br&gt;&lt;/div&gt;&lt;div&gt;&lt;br&gt;&lt;/div&gt;&lt;div&gt;提测&lt;/div&gt;&lt;ol&gt;&lt;li style=&quot;border-color: var(--border-color);&quot;&gt;&lt;span style=&quot;background-color: initial;&quot;&gt;merge release-feat-xxx to upstream/test 自动触发&lt;/span&gt;&lt;br&gt;&lt;/li&gt;&lt;/ol&gt;&lt;div&gt;&lt;div style=&quot;border-color: var(--border-color);&quot;&gt;&lt;br style=&quot;border-color: var(--border-color);&quot;&gt;&lt;/div&gt;&lt;div style=&quot;border-color: var(--border-color);&quot;&gt;&lt;br style=&quot;border-color: var(--border-color);&quot;&gt;&lt;/div&gt;&lt;div style=&quot;border-color: var(--border-color);&quot;&gt;预生产&lt;/div&gt;&lt;ol style=&quot;border-color: var(--border-color);&quot;&gt;&lt;li style=&quot;border-color: var(--border-color);&quot;&gt;merge release-feat-xxx to upstream/master 自动触发&lt;/li&gt;&lt;/ol&gt;&lt;/div&gt;&lt;div&gt;&lt;br&gt;&lt;/div&gt;&lt;div&gt;生产&lt;/div&gt;&lt;ol&gt;&lt;li style=&quot;border-color: var(--border-color);&quot;&gt;通过 Jenkins 将当前预生产对应的dist包推送到生产环境&lt;/li&gt;&lt;li style=&quot;border-color: var(--border-color);&quot;&gt;同时生成 git tag&lt;/li&gt;&lt;/ol&gt;&lt;div&gt;&lt;br&gt;&lt;/div&gt;&lt;div&gt;&lt;br&gt;&lt;/div&gt;&lt;div&gt;注意&lt;/div&gt;&lt;ol&gt;&lt;li style=&quot;border-color: var(--border-color);&quot;&gt;根据上游优先原则 和 提高 git log 的可读性，向上游合并代码前必需先 rebase 远程的上游代码，rebase 前必须先 fetch，例如 release-* 向 master 合并，或者 feat-* 向 release-* 合并&lt;/li&gt;&lt;li style=&quot;border-color: var(--border-color);&quot;&gt;重复且不需要人工验证的环境尽量通过脚本自动触发&lt;/li&gt;&lt;li style=&quot;border-color: var(--border-color);&quot;&gt;不能直接在 fe/project 仓库修改代码&lt;/li&gt;&lt;li style=&quot;border-color: var(--border-color);&quot;&gt;控制 fe/project 仓库的权限&lt;/li&gt;&lt;li style=&quot;border-color: var(--border-color);&quot;&gt;控制 jenkins prod 的权限&lt;/li&gt;&lt;li style=&quot;border-color: var(--border-color);&quot;&gt;已经合并到上游的分支，需要及时删除，避免 feat 分支长时间存在&lt;/li&gt;&lt;/ol&gt;" style="text;strokeColor=none;fillColor=none;html=1;whiteSpace=wrap;verticalAlign=middle;overflow=hidden;" parent="1" vertex="1">
          <mxGeometry x="120" y="380" width="430" height="1300" as="geometry" />
        </mxCell>
        <mxCell id="uEpX9t3pM9QsPOURx1SE-106" style="edgeStyle=orthogonalEdgeStyle;rounded=0;orthogonalLoop=1;jettySize=auto;html=1;exitX=1;exitY=0.25;exitDx=0;exitDy=0;entryX=0;entryY=0.25;entryDx=0;entryDy=0;" parent="1" source="uEpX9t3pM9QsPOURx1SE-51" target="uEpX9t3pM9QsPOURx1SE-100" edge="1">
          <mxGeometry relative="1" as="geometry">
            <Array as="points">
              <mxPoint x="360" y="265" />
              <mxPoint x="360" y="265" />
            </Array>
          </mxGeometry>
        </mxCell>
        <mxCell id="uEpX9t3pM9QsPOURx1SE-107" style="edgeStyle=orthogonalEdgeStyle;rounded=0;orthogonalLoop=1;jettySize=auto;html=1;exitX=0;exitY=0.75;exitDx=0;exitDy=0;entryX=1;entryY=0.75;entryDx=0;entryDy=0;" parent="1" source="uEpX9t3pM9QsPOURx1SE-100" target="uEpX9t3pM9QsPOURx1SE-51" edge="1">
          <mxGeometry relative="1" as="geometry">
            <Array as="points">
              <mxPoint x="360" y="275" />
              <mxPoint x="360" y="275" />
            </Array>
          </mxGeometry>
        </mxCell>
        <mxCell id="OMr3G2vgLBYyFHTPHP7O-8" style="edgeStyle=orthogonalEdgeStyle;rounded=0;orthogonalLoop=1;jettySize=auto;html=1;entryX=0.5;entryY=1;entryDx=0;entryDy=0;" parent="1" source="uEpX9t3pM9QsPOURx1SE-83" target="uEpX9t3pM9QsPOURx1SE-82" edge="1">
          <mxGeometry relative="1" as="geometry">
            <Array as="points">
              <mxPoint x="480" y="170" />
              <mxPoint x="210" y="170" />
            </Array>
          </mxGeometry>
        </mxCell>
        <mxCell id="OMr3G2vgLBYyFHTPHP7O-9" style="edgeStyle=orthogonalEdgeStyle;rounded=0;orthogonalLoop=1;jettySize=auto;html=1;entryX=0.5;entryY=0;entryDx=0;entryDy=0;" parent="1" source="uEpX9t3pM9QsPOURx1SE-56" target="uEpX9t3pM9QsPOURx1SE-51" edge="1">
          <mxGeometry relative="1" as="geometry">
            <Array as="points">
              <mxPoint x="480" y="250" />
              <mxPoint x="210" y="250" />
            </Array>
          </mxGeometry>
        </mxCell>
      </root>
    </mxGraphModel>
  </diagram>
</mxfile>
